<svg xmlns="http://www.w3.org/2000/svg" viewBox="0 0 1024 1024" role="img" aria-label="Mori Canvas icon">
  <defs>
    <linearGradient id="bg" x1="128" y1="80" x2="896" y2="944" gradientUnits="userSpaceOnUse">
      <stop offset="0" stop-color="#183329"/>
      <stop offset="1" stop-color="#0f1c18"/>
    </linearGradient>
    <linearGradient id="board" x1="270" y1="230" x2="760" y2="780" gradientUnits="userSpaceOnUse">
      <stop offset="0" stop-color="#fffdf4"/>
      <stop offset="1" stop-color="#f3ead8"/>
    </linearGradient>
    <filter id="shadow" x="-20%" y="-20%" width="140%" height="150%">
      <feDropShadow dx="0" dy="26" stdDeviation="28" flood-color="#07110e" flood-opacity="0.34"/>
    </filter>
    <filter id="softShadow" x="-30%" y="-30%" width="160%" height="170%">
      <feDropShadow dx="0" dy="12" stdDeviation="14" flood-color="#07110e" flood-opacity="0.22"/>
    </filter>
  </defs>

  <rect width="1024" height="1024" rx="228" fill="url(#bg)"/>

  <path
    d="M214 526c-14-152 96-297 253-330 101-21 206 7 282 75"
    fill="none"
    stroke="#f8eedb"
    stroke-width="38"
    stroke-linecap="round"
    opacity="0.95"/>
  <path
    d="M793 346c64 118 34 274-72 358-77 62-180 79-272 48"
    fill="none"
    stroke="#f8eedb"
    stroke-width="24"
    stroke-linecap="round"
    opacity="0.78"/>
  <path
    d="M748 265l44 69-76-16M366 760l-78-20 61-52"
    fill="none"
    stroke="#f8eedb"
    stroke-width="22"
    stroke-linecap="round"
    stroke-linejoin="round"
    opacity="0.9"/>

  <g filter="url(#shadow)">
    <rect x="258" y="258" width="508" height="508" rx="72" fill="url(#board)" transform="rotate(-2 512 512)"/>
    <rect x="302" y="302" width="420" height="420" rx="44" fill="#fff8e8" opacity="0.68" transform="rotate(-2 512 512)"/>
  </g>

  <g fill="none" stroke="#b4530a" stroke-width="18" stroke-linecap="round" stroke-linejoin="round" opacity="0.9">
    <path d="M418 474h177l82 86"/>
    <path d="M418 474l35 132"/>
  </g>
  <g fill="#b4530a">
    <circle cx="418" cy="474" r="16"/>
    <circle cx="595" cy="474" r="16"/>
    <circle cx="677" cy="560" r="16"/>
    <circle cx="453" cy="606" r="16"/>
  </g>

  <g filter="url(#softShadow)">
    <rect x="331" y="372" width="174" height="136" rx="28" fill="#f7e3a6"/>
    <rect x="517" y="364" width="174" height="136" rx="28" fill="#bdd6f1"/>
    <rect x="421" y="562" width="184" height="142" rx="30" fill="#c4e3bc"/>
  </g>

  <g opacity="0.72">
    <circle cx="365" cy="406" r="12" fill="#d6aa2b"/>
    <circle cx="552" cy="398" r="12" fill="#3978bf"/>
    <circle cx="456" cy="597" r="12" fill="#4a9b54"/>
  </g>

  <path
    d="M628 615c42-38 76-61 102-70"
    fill="none"
    stroke="#13231d"
    stroke-width="20"
    stroke-linecap="round"
    opacity="0.18"/>
  <path
    d="M298 734c68 62 154 95 246 93"
    fill="none"
    stroke="#f8eedb"
    stroke-width="16"
    stroke-linecap="round"
    opacity="0.48"/>
</svg>
